<svg width="206" height="171" viewBox="0 0 206 171" fill="none" xmlns="http://www.w3.org/2000/svg">
<g filter="url(#filter0_d_11_3)">
<path d="M18.6 162.4C21 162.4 23.4 162 26.2 161C45.4 154.4 53.6 128.8 56.6 103.2C66.2 97.6 74.4 92 80.6 86C81 85.6 81 85.2 81 84.8C80.8 84.2 80.4 83.6 79.6 83.6C79.4 83.6 79.2 83.6 78.6 84C73.4 89.4 65.8 94.2 57 99.4C58 91.2 58.4 82 58.4 72.8C58.4 47.2 55.2 21 51.2 9.4C49.2 3.39999 45.4 0.399993 40.2 0.399993C38.4 0.399993 36.6 0.799988 34.4 1.39999C21.4 5.6 6.4 25 6.4 42.6C6.4 49 8.8 57.8 12.8 57.8C15.2 57.8 16.6 55.8 16.6 54C16.6 53.4 16.4 52.8 16 52.2C14.4 50 11.2 52.2 10.4 49.8C9.8 47.6 9.4 45.2 9.4 42.8C9.4 27.6 21.6 10.8 32.2 5.39999L33.4 5.19999C38.2 5.19999 40.2 19.4 40.4 21C42.4 35.6 44.4 57.6 44.4 79.4C44.4 89 44 98.6 43 107.4C37.4 110.2 31.4 113.4 25 116.4C10.2 123.6 4.8 134.2 4 145.8C4 154.8 9.2 162.4 18.6 162.4ZM15.2 158.8H14.8C9.2 157 7 151.6 7 146C7.8 135.6 12.4 125.8 26.4 119C32 116.2 37.4 113.6 42.6 110.8C41 123.8 32.2 158.8 15.2 158.8ZM113.414 135.2C114.614 135.2 115.814 135 117.014 134.6C126.214 131.8 138.214 96.4 143.414 85.8C143.614 85.4 143.614 85 143.614 85C143.614 84 142.614 83.6 142.214 83.6C141.614 83.6 141.214 83.8 140.814 84.4C136.014 94 123.614 129.4 116.214 131.8C115.814 131.8 115.214 130.2 115.014 128C114.614 125.4 114.414 122 114.414 118.2C114.414 101 117.814 74.6 118.214 70.8L118.414 70C118.414 66.6 115.414 65 112.414 65C109.614 65 106.814 66.4 106.214 68.6L105.414 72.4C103.614 69.6 100.414 67 97.2141 66.4L94.6141 66.2C82.6141 66.2 77.0141 84.2 76.0141 94.8L75.8141 99.8C75.8141 108.8 78.2141 119.6 87.4141 119.6L89.0141 119.4C94.6141 118.6 99.6141 103.8 103.414 91.6C103.214 95.2 102.814 100.8 102.814 106.8C102.814 118.2 104.014 130.8 108.814 133.8C110.214 134.8 111.814 135.2 113.414 135.2ZM88.6141 116.6L88.0141 116.4C87.6141 115.6 87.4141 113.8 87.4141 111.6C87.4141 99.6 92.8141 71.8 97.0141 69.4C98.8141 70 100.214 71 101.614 72.2C103.014 73.6 104.014 75.4 104.614 77.4C102.414 84 94.0141 116.6 88.6141 116.6ZM128.328 144.2C129.928 144.2 131.928 142 132.928 141C137.528 135.8 143.728 125.2 150.128 113.6C153.728 122 157.728 128.6 161.928 131C164.528 132.6 169.128 133 172.728 133H174.528C181.528 133 187.728 117.8 194.728 101C196.728 96 198.928 90.6 201.128 85.8L201.328 85.2C201.328 84.6 200.928 84 200.528 83.8L199.728 83.6C199.328 83.6 198.728 84 198.528 84.6C196.128 89.8 193.928 95 191.928 99.8C185.328 115.4 179.528 130.2 174.128 130.2C167.328 129.6 158.328 101.4 158.328 98.8V98.6C164.728 86.8 170.728 75.4 174.928 69.2C175.328 68.4 175.928 68.2 176.728 68.2L177.928 68.4C178.728 68.4 179.528 68.2 180.128 67C180.528 66.4 180.528 66 180.528 65.4C180.528 63.8 179.128 62.6 177.528 62.6C176.928 62.6 176.128 62.8 175.528 63.4C172.128 66.2 161.328 86.4 157.128 94.6C154.728 86.2 152.928 76.8 150.328 68.8C149.728 66.8 147.728 65.8 145.328 65.8L142.728 66.2C139.928 67 137.728 69.2 137.728 72L137.928 73.4C140.528 84.8 144.328 98.8 148.728 110C142.128 122 136.128 133 131.528 138.2C130.928 138.8 130.528 139 129.928 139L128.328 138.8C127.928 138.8 127.528 139 126.928 139.4C126.128 140 125.928 140.6 125.928 141.4C125.928 142.2 126.328 143 126.928 143.6C127.328 144 127.728 144.2 128.328 144.2Z" fill="white"/>
</g>
<defs>
<filter id="filter0_d_11_3" x="0" y="0.399963" width="205.328" height="170" filterUnits="userSpaceOnUse" color-interpolation-filters="sRGB">
<feFlood flood-opacity="0" result="BackgroundImageFix"/>
<feColorMatrix in="SourceAlpha" type="matrix" values="0 0 0 0 0 0 0 0 0 0 0 0 0 0 0 0 0 0 127 0" result="hardAlpha"/>
<feOffset dy="4"/>
<feGaussianBlur stdDeviation="2"/>
<feComposite in2="hardAlpha" operator="out"/>
<feColorMatrix type="matrix" values="0 0 0 0 0 0 0 0 0 0 0 0 0 0 0 0 0 0 0.25 0"/>
<feBlend mode="normal" in2="BackgroundImageFix" result="effect1_dropShadow_11_3"/>
<feBlend mode="normal" in="SourceGraphic" in2="effect1_dropShadow_11_3" result="shape"/>
</filter>
</defs>
</svg>
